<?xml version="1.0" encoding="utf-8"?>
<!-- Generator: Adobe Illustrator 26.0.2, SVG Export Plug-In . SVG Version: 6.00 Build 0)  -->
<svg version="1.1" id="레이어_1" xmlns="http://www.w3.org/2000/svg" xmlns:xlink="http://www.w3.org/1999/xlink" x="0px"
	 y="0px" viewBox="0 0 145.8 161.8" style="enable-background:new 0 0 145.8 161.8;" xml:space="preserve">
<style type="text/css">
	.st0{fill:none;stroke:#515FA9;stroke-width:4;stroke-linecap:round;stroke-linejoin:round;}
	.st1{fill:none;stroke:#515FA9;stroke-width:3;stroke-linecap:round;stroke-miterlimit:10;}
</style>
<polygon class="st0" points="19.8,63.2 28.3,87.5 98.6,75.3 88.3,52.8 "/>
<polygon class="st0" points="30.6,89.9 6.9,76.9 24.1,104.5 49.1,113.9 "/>
<polygon class="st0" points="29,106.4 29.2,129.1 47.7,159.5 47.9,113.4 "/>
<polygon class="st0" points="28.3,87.5 48.7,112.7 123.7,99.5 98.6,75.3 "/>
<polygon class="st0" points="122.6,111.4 123.1,145.2 47.3,159.8 47.3,113.5 60.4,122.4 "/>
<polygon class="st0" points="98.6,75.3 117.3,52.8 143.8,75.4 123.7,99.5 "/>
<polygon class="st0" points="123.7,99.5 46.7,112.7 60.4,122.4 139,108 "/>
<line class="st1" x1="69.4" y1="13.4" x2="69.4" y2="27.2"/>
<line class="st1" x1="69.4" y1="1.5" x2="69.4" y2="9.4"/>
<line class="st1" x1="35.3" y1="16.9" x2="43.6" y2="31.9"/>
<line class="st1" x1="31.9" y1="10.9" x2="33.3" y2="13.4"/>
<line class="st1" x1="16.2" y1="38.7" x2="20.2" y2="41.3"/>
<line class="st1" x1="1.5" y1="29.6" x2="12.7" y2="36.6"/>
<line class="st1" x1="103.3" y1="17.1" x2="95.1" y2="31.9"/>
<line class="st1" x1="106.8" y1="10.9" x2="105.4" y2="13.4"/>
<line class="st1" x1="125.3" y1="37" x2="118.5" y2="41.3"/>
<line class="st1" x1="137.2" y1="29.6" x2="128.7" y2="34.9"/>
</svg>
