<svg width="25" height="24" viewBox="0 0 25 24" fill="none" xmlns="http://www.w3.org/2000/svg">
<path d="M16.4941 11.5308L15.5225 8.61594L7.10181 10.2353L8.07343 13.1502M16.4941 11.5308L8.07343 13.1502M16.4941 11.5308L19.409 14.4457M16.4941 11.5308L18.7613 9.26368L22 11.8547L19.409 14.4457M8.07343 13.1502L5.48244 12.5024L7.42568 15.4173L8.07343 15.6332M8.07343 13.1502L10.3405 16.3889M10.3405 16.3889V22.2186M10.3405 16.3889L8.07343 15.6332M10.3405 16.3889L19.409 14.4457M10.3405 16.3889L11.9599 17.6844L19.2645 16.1156M10.3405 22.2186L8.07343 18.656V15.6332M10.3405 22.2186L19.2645 20.2388V16.1156M19.409 14.4457L21.3214 15.6725L19.2645 16.1156" stroke="#515FA9" stroke-width="0.453423" stroke-linejoin="round"/>
<path d="M10.8972 3.44534L11.0384 5.05855" stroke="#515FA9" stroke-width="0.323874" stroke-linecap="round"/>
<path d="M10.7561 1.83209L10.8408 2.80002" stroke="#515FA9" stroke-width="0.323874" stroke-linecap="round"/>
<path d="M14.4979 5.21103L15.1367 3.59461" stroke="#515FA9" stroke-width="0.323874" stroke-linecap="round" stroke-linejoin="round"/>
<path d="M15.6691 2.24756L15.4029 2.92107" stroke="#515FA9" stroke-width="0.323874" stroke-linecap="round" stroke-linejoin="round"/>
<path d="M6.33508 3.32428L7.09327 4.55839M7.47236 5.17545L7.85146 5.7925" stroke="#515FA9" stroke-width="0.323874" stroke-linecap="round" stroke-linejoin="round"/>
<path d="M2.83493 6.60822L3.23159 6.83723M3.62826 7.06624L5.21491 7.9823" stroke="#515FA9" stroke-width="0.323874" stroke-linecap="round" stroke-linejoin="round"/>
<path d="M17.7056 6.26837L18.6362 5.57807M19.1016 5.23293L20.0322 4.54263" stroke="#515FA9" stroke-width="0.323874" stroke-linecap="round" stroke-linejoin="round"/>
</svg>
