<svg width="25" height="24" viewBox="0 0 25 24" fill="none" xmlns="http://www.w3.org/2000/svg">
<path d="M7.77385 10.553L14.2738 9.30301L15.0238 11.553L16.7738 9.80301L19.2738 11.803L17.2738 13.803L18.75 14.75L17.2738 15.0684V18.2511L10.2738 19.803L8.52385 17.053V14.7197L8.02385 14.553L6.52385 12.303L8.52385 12.803L7.77385 10.553Z" fill="white"/>
<path d="M15.0238 11.553L14.2738 9.30301L7.77385 10.553L8.52385 12.803M15.0238 11.553L8.52385 12.803M15.0238 11.553L17.2738 13.803M15.0238 11.553L16.7738 9.80301L19.2738 11.803L17.2738 13.803M8.52385 12.803L6.52385 12.303L8.02385 14.553L8.52385 14.7197M8.52385 12.803L10.2738 15.303M10.2738 15.303V19.803M10.2738 15.303L8.52385 14.7197M10.2738 15.303L17.2738 13.803M10.2738 15.303L11.5238 16.303L17.2738 15.0684M10.2738 19.803L8.52385 17.053V14.7197M10.2738 19.803L17.2738 18.2511V15.0684M17.2738 13.803L18.75 14.75L17.2738 15.0684" stroke="#515FA9" stroke-width="0.35" stroke-linejoin="round"/>
<path d="M10.7036 5.3118L10.8125 6.55704" stroke="white" stroke-width="0.25" stroke-linecap="round"/>
<path d="M10.5946 4.06653L10.66 4.81367" stroke="white" stroke-width="0.25" stroke-linecap="round"/>
<path d="M13.4829 6.67474L13.976 5.42702" stroke="white" stroke-width="0.25" stroke-linecap="round" stroke-linejoin="round"/>
<path d="M14.387 4.38724L14.1815 4.90712" stroke="white" stroke-width="0.25" stroke-linecap="round" stroke-linejoin="round"/>
<path d="M7.18201 5.21835L7.76726 6.17097M8.05989 6.64728L8.35251 7.12359" stroke="white" stroke-width="0.25" stroke-linecap="round" stroke-linejoin="round"/>
<path d="M4.48023 7.75323L4.78642 7.93001M5.0926 8.10679L6.31735 8.81389" stroke="white" stroke-width="0.25" stroke-linecap="round" stroke-linejoin="round"/>
<path d="M15.9589 7.49091L16.6773 6.95807M17.0365 6.69165L17.7549 6.15881" stroke="white" stroke-width="0.25" stroke-linecap="round" stroke-linejoin="round"/>
</svg>
