<svg xmlns="http://www.w3.org/2000/svg" viewBox="0 0 274.95 305.19"><defs><style>.cls-1{fill:#fff;stroke:#515fa9;stroke-linejoin:round;stroke-width:7px;}.cls-1,.cls-2{stroke-linecap:round;}.cls-2{fill:none;stroke:#fff;stroke-miterlimit:10;stroke-width:4px;}</style></defs><g id="레이어_2" data-name="레이어 2"><g id="레이어_1-2" data-name="레이어 1"><polygon class="cls-1" points="36.54 118.83 52.7 164.87 185.74 141.68 166.23 99.21 36.54 118.83"/><polygon class="cls-1" points="57.13 169.3 12.29 144.72 44.79 196.96 97.77 218.52 57.13 169.3"/><polygon class="cls-1" points="54.08 200.51 54.38 243.64 89.52 301.13 89.85 213.8 54.08 200.51"/><polygon class="cls-1" points="52.7 164.87 89.52 212.54 233.38 187.54 185.74 141.68 52.7 164.87"/><polygon class="cls-1" points="231.26 206.18 232.17 274.03 88.79 301.69 88.74 213.94 113.48 230.87 231.26 206.18"/><polygon class="cls-1" points="185.74 141.68 221.28 99.21 271.45 141.93 233.38 187.54 185.74 141.68"/><polygon class="cls-1" points="233.38 187.54 89.52 212.54 113.48 230.87 262.26 203.68 233.38 187.54"/><line class="cls-2" x1="130.45" y1="24.5" x2="130.45" y2="50.72"/><line class="cls-2" x1="130.45" y1="2" x2="130.45" y2="16.98"/><line class="cls-2" x1="65.94" y1="31.15" x2="81.73" y2="59.58"/><line class="cls-2" x1="59.58" y1="19.72" x2="62.24" y2="24.5"/><line class="cls-2" x1="29.74" y1="72.49" x2="37.44" y2="77.3"/><line class="cls-2" x1="2" y1="55.15" x2="23.25" y2="68.43"/><line class="cls-2" x1="194.77" y1="31.52" x2="179.18" y2="59.58"/><line class="cls-2" x1="201.32" y1="19.72" x2="198.67" y2="24.5"/><line class="cls-2" x1="236.4" y1="69.22" x2="223.47" y2="77.3"/><line class="cls-2" x1="258.91" y1="55.15" x2="242.82" y2="65.21"/></g></g></svg>