<svg xmlns="http://www.w3.org/2000/svg" viewBox="0 0 133.56 135.74"><defs><style>.cls-1{fill:#898989;}</style></defs><g id="레이어_2" data-name="레이어 2"><g id="레이어_1-2" data-name="레이어 1"><path class="cls-1" d="M10.09,40H123.47a3,3,0,0,0,3-3.42l-2-14.17a3,3,0,0,0-3-2.58H12.09a3,3,0,0,0-3,2.58l-2,14.17a3,3,0,0,0,3,3.42Z"/><path class="cls-1" d="M21.43,15.92h90.7a3,3,0,0,0,2.94-3.59l-2-9.92A3,3,0,0,0,110.13,0H23.43a3,3,0,0,0-2.95,2.41l-2,9.92a3,3,0,0,0,2.95,3.59Z"/><path class="cls-1" d="M130.56,44.7H3a3,3,0,0,0-3,3v85a3,3,0,0,0,3,3H130.56a3,3,0,0,0,3-3v-85A3,3,0,0,0,130.56,44.7Zm-16.67,65.64H19.67a3,3,0,0,1-3-3c0-1.65,2.34-3,4-3h93.22a3,3,0,1,1,0,6Zm0-20H19.67a3,3,0,0,1,0-6h94.22a3,3,0,0,1,0,6Zm0-20H19.67a3,3,0,0,1,0-6h94.22a3,3,0,0,1,0,6Z"/></g></g></svg>