<?xml version="1.0" encoding="utf-8"?>
<!-- Generator: Adobe Illustrator 26.0.2, SVG Export Plug-In . SVG Version: 6.00 Build 0)  -->
<svg version="1.1" id="레이어_1" xmlns="http://www.w3.org/2000/svg" xmlns:xlink="http://www.w3.org/1999/xlink" x="0px"
	 y="0px" viewBox="0 0 76.9 58.5" style="enable-background:new 0 0 76.9 58.5;" xml:space="preserve">
<style type="text/css">
	.st0{fill:#5A6DB2;}
	.st1{fill:#515FA9;}
	.st2{fill:#3F4A88;}
</style>
<g>
	<polygon class="st0" points="39.9,26.2 47.8,41.6 74.5,30.2 66.7,14.8 	"/>
	<polygon class="st0" points="29.1,41.6 37,26.2 10.2,14.8 2.4,30.2 	"/>
	<g>
		<path class="st1" d="M37.5,29.5l-7,13.8c-0.2,0.3-0.5,0.5-0.9,0.5c-0.1,0-0.3,0-0.4-0.1l-18.4-7.8v8.7l26.6,11.3L37.5,29.5z"/>
		<path class="st1" d="M27.4,22.1"/>
		<path class="st1" d="M47.7,43.8c-0.1,0.1-0.3,0.1-0.4,0.1c-0.4,0-0.7-0.2-0.9-0.5l-6.9-13.5l-0.2,26.1l26.6-11.3V36L47.7,43.8z"/>
	</g>
	<polygon class="st2" points="12.5,13.2 38.3,24.2 64.6,13.1 38.5,2.1 	"/>
</g>
</svg>
