<svg width="28" height="35" viewBox="0 0 28 35" fill="none" xmlns="http://www.w3.org/2000/svg">
<g clip-path="url(#clip0_295_184)">
<path d="M20.2434 32.9172L22.3522 34.3286V28.7491H18.1323V34.3286L20.2434 32.9172Z" fill="#515FA9"/>
<path d="M27.3433 27.1793C27.4674 27.1495 27.5779 27.0784 27.6569 26.9773C27.736 26.8762 27.779 26.7511 27.779 26.6222V2.35595C27.5893 1.67787 27.1858 1.08089 26.6298 0.655683C26.0738 0.230471 25.3957 0.000254903 24.6985 0H2.74291C1.23316 0 0.0109863 1.06128 0.0109863 2.35595V28.6281C0.0129022 28.853 0.0511673 29.0761 0.124271 29.2886C0.275494 29.894 0.624061 30.4303 1.11376 30.811C1.60346 31.1917 2.20576 31.3946 2.82352 31.3869H17.3742V30.22H2.81262C2.43248 30.1992 2.0747 30.0319 1.81288 29.7526C1.55107 29.4732 1.40515 29.1031 1.40515 28.7183C1.40515 28.3336 1.55107 27.9634 1.81288 27.6841C2.0747 27.4048 2.43248 27.2375 2.81262 27.2167H25.6876C25.4527 27.6817 25.3303 28.1963 25.3303 28.7183C25.3303 29.2404 25.4527 29.755 25.6876 30.22H23.1038V31.4002H27.0971C27.2653 31.413 27.4318 31.3582 27.5603 31.2477C27.6887 31.1372 27.7689 30.9799 27.7834 30.8101C27.7767 30.6631 27.7189 30.5232 27.62 30.4152C27.5211 30.3072 27.3876 30.238 27.2431 30.22C26.8618 29.9183 26.6919 29.2952 26.6919 28.7051C26.6919 28.115 26.9185 27.4721 27.3433 27.1793ZM0.0480216 28.7756C0.0480216 28.747 0.0480216 28.7183 0.0480216 28.6897C0.0476575 28.3973 0.109317 28.1083 0.228843 27.842C0.11318 28.1396 0.0519135 28.4559 0.0480216 28.7756ZM22.0298 9.14196C22.0298 9.91259 21.3021 10.5423 20.4111 10.5423H7.3789C6.48787 10.5423 5.76022 9.91259 5.76022 9.14196V6.47335C5.76022 5.70271 6.48787 5.07299 7.3789 5.07299H20.4111C21.3021 5.07299 22.0298 5.70271 22.0298 6.47335V9.14196Z" fill="#515FA9"/>
</g>
<defs>
<clipPath id="clip0_295_184">
<rect width="27.7898" height="34.3286" fill="white"/>
</clipPath>
</defs>
</svg>
